999
dxflib 2.0.4.8
  0
SECTION
  2
HEADER
  9
$ACADVER
  1
AC1015
  9
$HANDSEED
  5
FFFF
  9
$USERR4
 40
0.0
  9
$DIMTDEC
 70
4
  9
$DIMTAD
 70
0
  9
$CMLSTYLE
  2
Standard
  9
$VISRETAIN
 70
1
  9
$TILEMODE
 70
0
  9
$SHADEDIF
 70
70
  9
$USERR5
 40
0.0
  9
$UCSYDIR
 10
0.0
 20
1.0
 30
0.0
  9
$CHAMFERA
 40
0.0
  9
$MENU
  1
.
  9
$DIMALTZ
 70
0
  9
$CLAYER
  8
0
  9
$DIMASZ
 40
0.0708661
  9
$GRIDUNIT
 10
0.0
 20
0.0
  9
$DIMADEC
 70
0
  9
$OLESTARTUP
290
0
  9
$UCSXDIR
 10
1.0
 20
0.0
 30
0.0
  9
$CHAMFERB
 40
0.0
  9
$DIMUPT
 70
0
  9
$TRACEWID
 40
0.05
  9
$REGENMODE
 70
1
  9
$ORTHOMODE
 70
0
  9
$EXTMIN
 10
0.0
 20
0.0
 30
0.0
  9
$DIMGAP
 40
0.09
  9
$ENDCAPS
280
0
  9
$MEASUREMENT
 70
1
  9
$CMLJUST
 70
0
  9
$PUCSYDIR
 10
0.0
 20
1.0
 30
0.0
  9
$ANGBASE
 50
0.0
  9
$USRTIMER
 70
1
  9
$CHAMFERC
 40
0.0
  9
$SKETCHINC
 40
0.1
  9
$DIMTFAC
 40
1.0
  9
$DIMSAH
 70
0
  9
$DIMALT
 70
0
  9
$DIMSHO
 70
1
  9
$VERSIONGUID
  2
{6546D2F4-FC5F-4CB1-B4B2-65B58F0D861C}
  9
$LWDISPLAY
290
1
  9
$PUCSXDIR
 10
1.0
 20
0.0
 30
0.0
  9
$SURFTYPE
 70
6
  9
$SPLFRAME
 70
0
  9
$CHAMFERD
 40
0.0
  9
$DIMALTRND
 40
0.0
  9
$DIMALTTD
 70
2
  9
$DIMTSZ
 40
0.0
  9
$LIMMIN
 10
0.0
 20
0.0
  9
$SPLINESEGS
 70
8
  9
$AUPREC
 70
0
  9
$LUNITS
 70
2
  9
$CELWEIGHT
370
-1
  9
$SURFTAB1
 70
6
  9
$DWGCODEPAGE
  3
ANSI_1252
  9
$PSTYLEMODE
290
1
  9
$UNITMODE
 70
0
  9
$USERI1
 70
0
  9
$UCSORTHOVIEW
 70
0
  9
$SURFTAB2
 70
6
  9
$TDUUPDATE
 40
2455662.2091605667956173
  9
$TDUCREATE
 40
2455662.2091605667956173
  9
$SKPOLY
 70
0
  9
$ELEVATION
 40
0.0
  9
$DIMDSEP
 70
46
  9
$DIMCEN
 40
0.09
  9
$DIMRND
 40
0.0
  9
$INSBASE
 10
0.0
 20
0.0
 30
0.0
  9
$DIMEXO
 40
0.0625
  9
$INSUNITS
 70
1
  9
$USERI2
 70
0
  9
$UCSORGRIGHT
 10
0.0
 20
0.0
 30
0.0
  9
$UCSORG
 10
0.0
 20
0.0
 30
0.0
  9
$PELEVATION
 40
0.0
  9
$TEXTSIZE
 40
0.2
  9
$FILLMODE
 70
1
  9
$EXTMAX
 10
36.9202561493534205
 20
30.1531537009257598
 30
0.0
  9
$JOINSTYLE
280
0
  9
$USERI3
 70
0
  9
$PUCSORGBOTTOM
 10
0.0
 20
0.0
 30
0.0
  9
$SURFU
 70
6
  9
$ANGDIR
 70
0
  9
$TDUSRTIMER
 40
0.0000025347
  9
$DIMLWD
 70
-2
  9
$DIMTZIN
 70
0
  9
$DIMTOLJ
 70
1
  9
$DIMZIN
 70
0
  9
$DIMDLE
 40
0.0
  9
$DIMSCALE
 40
1.0
  9
$DIMLUNIT
 70
2
  9
$WORLDVIEW
 70
1
  9
$USERI4
 70
0
  9
$SURFV
 70
6
  9
$DIMLWE
 70
-2
  9
$DIMATFIT
 70
3
  9
$DIMALTTZ
 70
0
  9
$DIMJUST
 70
0
  9
$QTEXTMODE
 70
0
  9
$LIMMAX
 10
36.9202561493534205
 20
30.1531537009257598
  9
$ACADMAINTVER
 70
14
  9
$DIMTXT
 40
0.0708661
  9
$GRIDMODE
 70
1
  9
$EXTNAMES
290
1
  9
$PROXYGRAPHICS
 70
1
  9
$USERI5
 70
0
  9
$UCSORGTOP
 10
0.0
 20
0.0
 30
0.0
  9
$PDMODE
 70
0
  9
$LIMCHECK
 70
0
  9
$THICKNESS
 40
0.0
  9
$DIMAZIN
 70
0
  9
$DIMSE1
 70
0
  9
$DIMLIM
 70
0
  9
$ATTMODE
 70
1
  9
$LUPREC
 70
4
  9
$XEDIT
290
1
  9
$PEXTMAX
 10
36.9202561493534205
 20
30.1531537009257598
 30
0.0
  9
$PEXTMIN
 10
0.0
 20
0.0
 30
0.0
  9
$PUCSORG
 10
0.0
 20
0.0
 30
0.0
  9
$SPLINETYPE
 70
6
  9
$TDINDWG
 40
0.0000025347
  9
$DIMSOXD
 70
0
  9
$DIMLFAC
 40
1.0
  9
$DIMSE2
 70
0
  9
$DIMTOH
 70
1
  9
$CELTYPE
  6
ByLayer
  9
$PSVPSCALE
 40
0.0
  9
$FINGERPRINTGUID
  2
{6A2D375A-7E95-4032-B3B8-15B0D96F334B}
  9
$PLIMCHECK
 70
0
  9
$PUCSORGRIGHT
 10
0.0
 20
0.0
 30
0.0
  9
$PLINEWID
 40
0.0
  9
$DIMFRAC
 70
0
  9
$DIMSTYLE
  2
2dTranslator Dimension Style
  9
$DIMTVP
 40
0.0
  9
$DIMASO
 70
1
  9
$DIMTM
 40
0.0
  9
$DIMDLI
 40
0.38
  9
$DISPSILH
 70
0
  9
$CECOLOR
 62
256
  9
$PLIMMAX
 10
36.9202999999999975
 20
30.1531999999999982
  9
$PLIMMIN
 10
0.0
 20
0.0
  9
$TREEDEPTH
 70
3020
  9
$MAXACTVP
 70
64
  9
$UCSORGBACK
 10
0.0
 20
0.0
 30
0.0
  9
$UCSORGLEFT
 10
0.0
 20
0.0
 30
0.0
  9
$TDUPDATE
 40
2455662.0424938998185098
  9
$FILLETRAD
 40
0.0
  9
$DIMALTU
 70
2
  9
$DIMDEC
 70
4
  9
$DIMCLRT
 70
0
  9
$DIMALTD
 70
2
  9
$DIMTIH
 70
1
  9
$LTSCALE
 40
0.015748031496063
  9
$DIMEXE
 40
0.18
  9
$CEPSNTYPE
380
0
  9
$CMLSCALE
 40
1.0
  9
$PINSBASE
 10
0.0
 20
0.0
 30
0.0
  9
$USERR1
 40
0.0
  9
$PUCSORTHOVIEW
 70
0
  9
$PDSIZE
 40
0.0
  9
$DIMTXSTY
  7
Standard
  9
$DIMCLRD
 70
0
  9
$CELTSCALE
 40
1.0
  9
$DIMAUNIT
 70
0
  9
$PSLTSCALE
 70
1
  9
$PLINEGEN
 70
0
  9
$SHADEDGE
 70
3
  9
$USERR2
 40
0.0
  9
$PUCSORGTOP
 10
0.0
 20
0.0
 30
0.0
  9
$UCSORGFRONT
 10
0.0
 20
0.0
 30
0.0
  9
$TDCREATE
 40
2455662.0424938998185098
  9
$DIMTMOVE
 70
0
  9
$DIMSD1
 70
0
  9
$DIMCLRE
 70
0
  9
$DIMTOFL
 70
0
  9
$DIMALTF
 40
25.3999999999999986
  9
$DIMTOL
 70
0
  9
$DIMTP
 40
0.0
  9
$TEXTSTYLE
  7
Standard
  9
$AUNITS
 70
0
  9
$USERR3
 40
0.0
  9
$PUCSORGBACK
 10
0.0
 20
0.0
 30
0.0
  9
$PUCSORGFRONT
 10
0.0
 20
0.0
 30
0.0
  9
$PUCSORGLEFT
 10
0.0
 20
0.0
 30
0.0
  9
$UCSORGBOTTOM
 10
0.0
 20
0.0
 30
0.0
  9
$DIMSD2
 70
0
  9
$DIMTIX
 70
0
  9
$MIRRTEXT
 70
1
  0
ENDSEC
  0
SECTION
  2
TABLES
  0
TABLE
  2
VPORT
  5
8
100
AcDbSymbolTable
 70
1
  0
VPORT
  5
30
100
AcDbSymbolTableRecord
100
AcDbViewportTableRecord
  2
*Active
 70
0
 10
0.0
 20
0.0
 11
1.0
 21
1.0
 12
286.3055555555554861
 22
148.5
 13
0.0
 23
0.0
 14
10.0
 24
10.0
 15
10.0
 25
10.0
 16
0.0
 26
0.0
 36
1.0
 17
0.0
 27
0.0
 37
0.0
 40
297.0
 41
1.92798353909465
 42
50.0
 43
0.0
 44
0.0
 50
0.0
 51
0.0
 71
0
 72
100
 73
1
 74
3
 75
1
 76
1
 77
0
 78
0
281
0
 65
1
110
0.0
120
0.0
130
0.0
111
1.0
121
0.0
131
0.0
112
0.0
122
1.0
132
0.0
 79
0
146
0.0
  0
ENDTAB
  0
TABLE
  2
LTYPE
  5
5
100
AcDbSymbolTable
 70
21
  0
LTYPE
  5
14
100
AcDbSymbolTableRecord
100
AcDbLinetypeTableRecord
  2
ByBlock
 70
0
  3

 72
65
 73
0
 40
0.0
  0
LTYPE
  5
15
100
AcDbSymbolTableRecord
100
AcDbLinetypeTableRecord
  2
ByLayer
 70
0
  3

 72
65
 73
0
 40
0.0
  0
LTYPE
  5
16
100
AcDbSymbolTableRecord
100
AcDbLinetypeTableRecord
  2
CONTINUOUS
 70
0
  3
Solid line
 72
65
 73
0
 40
0.0
  0
LTYPE
  5
31
100
AcDbSymbolTableRecord
100
AcDbLinetypeTableRecord
  2
DOT
 70
0
  3
Dot . . . . . . . . . . . . . . . . . . . . . .
 72
65
 73
2
 40
6.3499999999999996
 49
0.0
 74
0
 49
-6.3499999999999996
 74
0
  0
LTYPE
  5
32
100
AcDbSymbolTableRecord
100
AcDbLinetypeTableRecord
  2
DOT2
 70
0
  3
Dot (.5x) .....................................
 72
65
 73
2
 40
3.1749999999999998
 49
0.0
 74
0
 49
-3.1749999999999998
 74
0
  0
LTYPE
  5
33
100
AcDbSymbolTableRecord
100
AcDbLinetypeTableRecord
  2
DOTX2
 70
0
  3
Dot (2x) .  .  .  .  .  .  .  .  .  .  .  .  .
 72
65
 73
2
 40
12.6999999999999993
 49
0.0
 74
0
 49
-12.6999999999999993
 74
0
  0
LTYPE
  5
34
100
AcDbSymbolTableRecord
100
AcDbLinetypeTableRecord
  2
DASHED
 70
0
  3
Dashed __ __ __ __ __ __ __ __ __ __ __ __ __ _
 72
65
 73
2
 40
19.0500000000000007
 49
12.6999999999999993
 74
0
 49
-6.3499999999999996
 74
0
  0
LTYPE
  5
35
100
AcDbSymbolTableRecord
100
AcDbLinetypeTableRecord
  2
DASHED2
 70
0
  3
Dashed (.5x) _ _ _ _ _ _ _ _ _ _ _ _ _ _ _ _ _
 72
65
 73
2
 40
9.5250000000000004
 49
6.3499999999999996
 74
0
 49
-3.1749999999999998
 74
0
  0
LTYPE
  5
36
100
AcDbSymbolTableRecord
100
AcDbLinetypeTableRecord
  2
DASHEDX2
 70
0
  3
Dashed (2x) ____  ____  ____  ____  ____  ___
 72
65
 73
2
 40
38.1000000000000014
 49
25.3999999999999986
 74
0
 49
-12.6999999999999993
 74
0
  0
LTYPE
  5
37
100
AcDbSymbolTableRecord
100
AcDbLinetypeTableRecord
  2
DASHDOT
 70
0
  3
Dash dot __ . __ . __ . __ . __ . __ . __ . __
 72
65
 73
4
 40
25.3999999999999986
 49
12.6999999999999993
 74
0
 49
-6.3499999999999996
 74
0
 49
0.0
 74
0
 49
-6.3499999999999996
 74
0
  0
LTYPE
  5
38
100
AcDbSymbolTableRecord
100
AcDbLinetypeTableRecord
  2
DASHDOT2
 70
0
  3
Dash dot (.5x) _._._._._._._._._._._._._._._.
 72
65
 73
4
 40
12.6999999999999993
 49
6.3499999999999996
 74
0
 49
-3.1749999999999998
 74
0
 49
0.0
 74
0
 49
-3.1749999999999998
 74
0
  0
LTYPE
  5
39
100
AcDbSymbolTableRecord
100
AcDbLinetypeTableRecord
  2
DASHDOTX2
 70
0
  3
Dash dot (2x) ____  .  ____  .  ____  .  ___
 72
65
 73
4
 40
50.7999999999999972
 49
25.3999999999999986
 74
0
 49
-12.6999999999999993
 74
0
 49
0.0
 74
0
 49
-12.6999999999999993
 74
0
  0
LTYPE
  5
3A
100
AcDbSymbolTableRecord
100
AcDbLinetypeTableRecord
  2
DIVIDE
 70
0
  3
Divide ____ . . ____ . . ____ . . ____ . . ____
 72
65
 73
6
 40
31.75
 49
12.6999999999999993
 74
0
 49
-6.3499999999999996
 74
0
 49
0.0
 74
0
 49
-6.3499999999999996
 74
0
 49
0.0
 74
0
 49
-6.3499999999999996
 74
0
  0
LTYPE
  5
3B
100
AcDbSymbolTableRecord
100
AcDbLinetypeTableRecord
  2
DIVIDE2
 70
0
  3
Divide (.5x) __..__..__..__..__..__..__..__.._
 72
65
 73
6
 40
15.875
 49
6.3499999999999996
 74
0
 49
-3.1749999999999998
 74
0
 49
0.0
 74
0
 49
-3.1749999999999998
 74
0
 49
0.0
 74
0
 49
-3.1749999999999998
 74
0
  0
LTYPE
  5
3C
100
AcDbSymbolTableRecord
100
AcDbLinetypeTableRecord
  2
DIVIDEX2
 70
0
  3
Divide (2x) ________  .  .  ________  .  .  _
 72
65
 73
6
 40
63.5
 49
25.3999999999999986
 74
0
 49
-12.6999999999999993
 74
0
 49
0.0
 74
0
 49
-12.6999999999999993
 74
0
 49
0.0
 74
0
 49
-12.6999999999999993
 74
0
  0
LTYPE
  5
3D
100
AcDbSymbolTableRecord
100
AcDbLinetypeTableRecord
  2
CENTER
 70
0
  3
Center ____ _ ____ _ ____ _ ____ _ ____ _ ____
 72
65
 73
4
 40
50.7999999999999972
 49
31.75
 74
0
 49
-6.3499999999999996
 74
0
 49
6.3499999999999996
 74
0
 49
-6.3499999999999996
 74
0
  0
LTYPE
  5
3E
100
AcDbSymbolTableRecord
100
AcDbLinetypeTableRecord
  2
CENTER2
 70
0
  3
Center (.5x) ___ _ ___ _ ___ _ ___ _ ___ _ ___
 72
65
 73
4
 40
28.5749999999999993
 49
19.0500000000000007
 74
0
 49
-3.1749999999999998
 74
0
 49
3.1749999999999998
 74
0
 49
-3.1749999999999998
 74
0
  0
LTYPE
  5
3F
100
AcDbSymbolTableRecord
100
AcDbLinetypeTableRecord
  2
CENTERX2
 70
0
  3
Center (2x) ________  __  ________  __  _____
 72
65
 73
4
 40
101.5999999999999943
 49
63.5
 74
0
 49
-12.6999999999999993
 74
0
 49
12.6999999999999993
 74
0
 49
-12.6999999999999993
 74
0
  0
LTYPE
  5
40
100
AcDbSymbolTableRecord
100
AcDbLinetypeTableRecord
  2
BORDER
 70
0
  3
Border __ __ . __ __ . __ __ . __ __ . __ __ .
 72
65
 73
6
 40
44.4500000000000028
 49
12.6999999999999993
 74
0
 49
-6.3499999999999996
 74
0
 49
12.6999999999999993
 74
0
 49
-6.3499999999999996
 74
0
 49
0.0
 74
0
 49
-6.3499999999999996
 74
0
  0
LTYPE
  5
41
100
AcDbSymbolTableRecord
100
AcDbLinetypeTableRecord
  2
BORDER2
 70
0
  3
Border (.5x) __.__.__.__.__.__.__.__.__.__.__.
 72
65
 73
6
 40
22.2250000000000014
 49
6.3499999999999996
 74
0
 49
-3.1749999999999998
 74
0
 49
6.3499999999999996
 74
0
 49
-3.1749999999999998
 74
0
 49
0.0
 74
0
 49
-3.1749999999999998
 74
0
  0
LTYPE
  5
42
100
AcDbSymbolTableRecord
100
AcDbLinetypeTableRecord
  2
BORDERX2
 70
0
  3
Border (2x) ____  ____  .  ____  ____  .  ___
 72
65
 73
6
 40
88.9000000000000057
 49
25.3999999999999986
 74
0
 49
-12.6999999999999993
 74
0
 49
25.3999999999999986
 74
0
 49
-12.6999999999999993
 74
0
 49
0.0
 74
0
 49
-12.6999999999999993
 74
0
  0
ENDTAB
  0
TABLE
  2
LAYER
  5
2
100
AcDbSymbolTable
 70
5
  0
LAYER
  5
10
100
AcDbSymbolTableRecord
100
AcDbLayerTableRecord
  2
0
 70
0
 62
7
  6
CONTINUOUS
370
-3
390
F
  0
LAYER
  5
43
100
AcDbSymbolTableRecord
100
AcDbLayerTableRecord
  2
IV_ARC_CENTERS
 70
0
 62
7
  6
CONTINUOUS
370
100
390
F
  0
LAYER
  5
44
100
AcDbSymbolTableRecord
100
AcDbLayerTableRecord
  2
IV_OUTER_PROFILE
 70
0
 62
7
  6
CONTINUOUS
370
100
390
F
  0
LAYER
  5
45
100
AcDbSymbolTableRecord
100
AcDbLayerTableRecord
  2
IV_FEATURE_PROFILES
 70
0
 62
7
  6
CONTINUOUS
370
100
390
F
  0
LAYER
  5
46
100
AcDbSymbolTableRecord
100
AcDbLayerTableRecord
  2
IV_INTERIOR_PROFILES
 70
0
 62
7
  6
CONTINUOUS
370
100
390
F
  0
ENDTAB
  0
TABLE
  2
STYLE
  5
3
100
AcDbSymbolTable
 70
1
  0
STYLE
  5
11
100
AcDbSymbolTableRecord
100
AcDbTextStyleTableRecord
  2
Standard
 70
0
 40
0.0
 41
0.75
 50
0.0
 71
0
 42
2.5
  3
txt
  4

  0
ENDTAB
  0
TABLE
  2
VIEW
  5
6
100
AcDbSymbolTable
 70
0
  0
ENDTAB
  0
TABLE
  2
UCS
  5
7
100
AcDbSymbolTable
 70
0
  0
ENDTAB
  0
TABLE
  2
APPID
  5
9
100
AcDbSymbolTable
 70
1
  0
APPID
  5
12
100
AcDbSymbolTableRecord
100
AcDbRegAppTableRecord
  2
ACAD
 70
0
  0
ENDTAB
  0
TABLE
  2
DIMSTYLE
  5
A
100
AcDbSymbolTable
 70
1
100
AcDbDimStyleTable
 71
0
  0
DIMSTYLE
105
27
100
AcDbSymbolTableRecord
100
AcDbDimStyleTableRecord
  2
Standard
 41
0.0708661
 42
0.0625
 43
3.75
 44
0.18
 70
0
 73
0
 74
0
 77
1
 78
8
140
0.0708661
141
2.5
143
0.03937007874016
147
0.09
171
3
172
1
271
2
272
2
274
3
278
44
283
0
284
8
340
11
  0
ENDTAB
  0
TABLE
  2
BLOCK_RECORD
  5
1
100
AcDbSymbolTable
 70
1
  0
BLOCK_RECORD
  5
1F
100
AcDbSymbolTableRecord
100
AcDbBlockTableRecord
  2
*Model_Space
340
22
  0
BLOCK_RECORD
  5
1B
100
AcDbSymbolTableRecord
100
AcDbBlockTableRecord
  2
*Paper_Space
340
1E
  0
BLOCK_RECORD
  5
23
100
AcDbSymbolTableRecord
100
AcDbBlockTableRecord
  2
*Paper_Space0
340
26
  0
ENDTAB
  0
ENDSEC
  0
SECTION
  2
BLOCKS
  0
BLOCK
  5
20
100
AcDbEntity
  8
0
100
AcDbBlockBegin
  2
*Model_Space
 70
0
 10
0.0
 20
0.0
 30
0.0
  3
*Model_Space
  1

  0
ENDBLK
  5
21
100
AcDbEntity
  8
0
100
AcDbBlockEnd
  0
BLOCK
  5
1C
100
AcDbEntity
 67
1
  8
0
100
AcDbBlockBegin
  2
*Paper_Space
 70
0
 10
0.0
 20
0.0
 30
0.0
  3
*Paper_Space
  1

  0
ENDBLK
  5
1D
100
AcDbEntity
 67
1
  8
0
100
AcDbBlockEnd
  0
BLOCK
  5
24
100
AcDbEntity
  8
0
100
AcDbBlockBegin
  2
*Paper_Space0
 70
0
 10
0.0
 20
0.0
 30
0.0
  3
*Paper_Space0
  1

  0
ENDBLK
  5
25
100
AcDbEntity
  8
0
100
AcDbBlockEnd
  0
ENDSEC
  0
SECTION
  2
ENTITIES
  0
ARC
  5
47
100
AcDbEntity
  8
IV_OUTER_PROFILE
 62
7
370
25
  6
CONTINUOUS
100
AcDbCircle
 10
2.7999999999999963
 20
3.0500000000000016
 30
0.0
 40
2.4999999999999991
100
AcDbArc
 50
180.0
 51
270.0
  0
LINE
  5
48
100
AcDbEntity
100
AcDbLine
  8
IV_OUTER_PROFILE
 62
7
370
25
  6
CONTINUOUS
 10
8.2999999999999989
 20
0.5500000000000017
 30
0.0
 11
2.799999999999998
 21
0.5500000000000017
 31
0.0
  0
ARC
  5
49
100
AcDbEntity
  8
IV_OUTER_PROFILE
 62
7
370
25
  6
CONTINUOUS
100
AcDbCircle
 10
8.2999999999999972
 20
1.5500000000000018
 30
0.0
 40
0.9999999999999998
100
AcDbArc
 50
270.0
 51
360.0
  0
LINE
  5
4A
100
AcDbEntity
100
AcDbLine
  8
IV_OUTER_PROFILE
 62
7
370
25
  6
CONTINUOUS
 10
9.2999999999999972
 20
2.5500000000000016
 30
0.0
 11
9.2999999999999972
 21
1.5500000000000018
 31
0.0
  0
ARC
  5
4B
100
AcDbEntity
  8
IV_OUTER_PROFILE
 62
7
370
25
  6
CONTINUOUS
100
AcDbCircle
 10
10.3000000000000007
 20
2.5500000000000016
 30
0.0
 40
0.9999999999999998
100
AcDbArc
 50
90.0
 51
180.0
  0
LINE
  5
4C
100
AcDbEntity
100
AcDbLine
  8
IV_OUTER_PROFILE
 62
7
370
25
  6
CONTINUOUS
 10
10.3000000000000007
 20
3.5499999999999998
 30
0.0
 11
11.0499999999999936
 21
3.5499999999999998
 31
0.0
  0
ARC
  5
4D
100
AcDbEntity
  8
IV_OUTER_PROFILE
 62
7
370
25
  6
CONTINUOUS
100
AcDbCircle
 10
11.0499999999999936
 20
4.0499999999999998
 30
0.0
 40
0.5
100
AcDbArc
 50
270.0
 51
360.0
  0
LINE
  5
4E
100
AcDbEntity
100
AcDbLine
  8
IV_OUTER_PROFILE
 62
7
370
25
  6
CONTINUOUS
 10
11.5499999999999936
 20
4.0499999999999998
 30
0.0
 11
11.5499999999999936
 21
6.5499999999999998
 31
0.0
  0
ARC
  5
4F
100
AcDbEntity
  8
IV_OUTER_PROFILE
 62
7
370
25
  6
CONTINUOUS
100
AcDbCircle
 10
11.0499999999999972
 20
6.5499999999999989
 30
0.0
 40
0.5
100
AcDbArc
 50
360.0
 51
90.0
  0
LINE
  5
50
100
AcDbEntity
100
AcDbLine
  8
IV_OUTER_PROFILE
 62
7
370
25
  6
CONTINUOUS
 10
11.0499999999999972
 20
7.0500000000000007
 30
0.0
 11
10.3000000000000149
 21
7.0500000000000007
 31
0.0
  0
LINE
  5
51
100
AcDbEntity
100
AcDbLine
  8
IV_OUTER_PROFILE
 62
7
370
25
  6
CONTINUOUS
 10
9.3000000000000007
 20
13.0500000000000025
 30
0.0
 11
9.2999999999999972
 21
8.0500000000000007
 31
0.0
  0
ARC
  5
52
100
AcDbEntity
  8
IV_OUTER_PROFILE
 62
7
370
25
  6
CONTINUOUS
100
AcDbCircle
 10
8.2999999999999972
 20
13.0500000000000025
 30
0.0
 40
0.9999999999999998
100
AcDbArc
 50
360.0
 51
90.0
  0
LINE
  5
53
100
AcDbEntity
100
AcDbLine
  8
IV_OUTER_PROFILE
 62
7
370
25
  6
CONTINUOUS
 10
2.7999999999999989
 20
14.0499999999999936
 30
0.0
 11
8.2999999999999954
 21
14.0499999999999918
 31
0.0
  0
ARC
  5
54
100
AcDbEntity
  8
IV_OUTER_PROFILE
 62
7
370
25
  6
CONTINUOUS
100
AcDbCircle
 10
2.7999999999999989
 20
11.5500000000000025
 30
0.0
 40
2.4999999999999991
100
AcDbArc
 50
90.0
 51
180.0
  0
LINE
  5
55
100
AcDbEntity
100
AcDbLine
  8
IV_OUTER_PROFILE
 62
7
370
25
  6
CONTINUOUS
 10
0.2999999999999991
 20
3.0499999999999998
 30
0.0
 11
0.3000000000000009
 21
11.5500000000000007
 31
0.0
  0
CIRCLE
  5
56
100
AcDbEntity
100
AcDbCircle
  8
IV_FEATURE_PROFILES
 62
7
370
25
  6
CONTINUOUS
 10
11.0814960629921231
 20
5.1641732283464563
 30
0.0
 40
0.05
  0
CIRCLE
  5
57
100
AcDbEntity
100
AcDbCircle
  8
IV_FEATURE_PROFILES
 62
7
370
25
  6
CONTINUOUS
 10
11.0814960629921266
 20
5.7940944881889758
 30
0.0
 40
0.05
  0
CIRCLE
  5
58
100
AcDbEntity
100
AcDbCircle
  8
IV_FEATURE_PROFILES
 62
7
370
25
  6
CONTINUOUS
 10
10.0185039370078748
 20
5.4791338582677183
 30
0.0
 40
0.05
  0
CIRCLE
  5
59
100
AcDbEntity
100
AcDbCircle
  8
IV_FEATURE_PROFILES
 62
7
370
25
  6
CONTINUOUS
 10
10.0185039370078748
 20
4.8492125984251979
 30
0.0
 40
0.05
  0
CIRCLE
  5
5A
100
AcDbEntity
100
AcDbCircle
  8
IV_FEATURE_PROFILES
 62
7
370
25
  6
CONTINUOUS
 10
10.0185039370078748
 20
5.1641732283464572
 30
0.0
 40
0.05
  0
CIRCLE
  5
5B
100
AcDbEntity
100
AcDbCircle
  8
IV_FEATURE_PROFILES
 62
7
370
25
  6
CONTINUOUS
 10
10.0185039370078748
 20
5.7940944881889767
 30
0.0
 40
0.05
  0
CIRCLE
  5
5C
100
AcDbEntity
100
AcDbCircle
  8
IV_FEATURE_PROFILES
 62
7
370
25
  6
CONTINUOUS
 10
11.0814960629921195
 20
5.4791338582677183
 30
0.0
 40
0.05
  0
CIRCLE
  5
5D
100
AcDbEntity
100
AcDbCircle
  8
IV_FEATURE_PROFILES
 62
7
370
25
  6
CONTINUOUS
 10
11.0814960629921231
 20
4.8492125984251979
 30
0.0
 40
0.05
  0
ARC
  5
5E
100
AcDbEntity
  8
IV_INTERIOR_PROFILES
 62
7
370
25
  6
CONTINUOUS
100
AcDbCircle
 10
10.5500000000000007
 20
6.0500000000000007
 30
0.0
 40
0.452755905511811
100
AcDbArc
 50
330.4081542095162831
 51
209.5918457904836032
  0
LINE
  5
5F
100
AcDbEntity
100
AcDbLine
  8
IV_INTERIOR_PROFILES
 62
7
370
25
  6
CONTINUOUS
 10
10.9437007874015713
 20
5.8264209312992135
 30
0.0
 11
10.9437007874015713
 21
4.7114173228346461
 31
0.0
  0
LINE
  5
60
100
AcDbEntity
100
AcDbLine
  8
IV_INTERIOR_PROFILES
 62
7
370
25
  6
CONTINUOUS
 10
10.9437007874015713
 20
4.7114173228346461
 30
0.0
 11
10.1562992125984231
 21
4.7114173228346461
 31
0.0
  0
LINE
  5
61
100
AcDbEntity
100
AcDbLine
  8
IV_INTERIOR_PROFILES
 62
7
370
25
  6
CONTINUOUS
 10
10.1562992125984231
 20
4.7114173228346461
 30
0.0
 11
10.1562992125984231
 21
5.8264209312992135
 31
0.0
  0
CIRCLE
  5
62
100
AcDbEntity
100
AcDbCircle
  8
IV_FEATURE_PROFILES
 62
7
370
25
  6
CONTINUOUS
 10
7.2999999999999989
 20
13.4835629921259823
 30
0.0
 40
0.0625
  0
CIRCLE
  5
63
100
AcDbEntity
100
AcDbCircle
  8
IV_FEATURE_PROFILES
 62
7
370
25
  6
CONTINUOUS
 10
7.2999999999999989
 20
1.1164370078740167
 30
0.0
 40
0.0625
  0
CIRCLE
  5
64
100
AcDbEntity
100
AcDbCircle
  8
IV_FEATURE_PROFILES
 62
7
370
25
  6
CONTINUOUS
 10
4.2999999999999963
 20
1.1164370078740202
 30
0.0
 40
0.0625
  0
CIRCLE
  5
65
100
AcDbEntity
100
AcDbCircle
  8
IV_FEATURE_PROFILES
 62
7
370
25
  6
CONTINUOUS
 10
8.3000000000000007
 20
7.2999999999999998
 30
0.0
 40
0.0625
  0
CIRCLE
  5
66
100
AcDbEntity
100
AcDbCircle
  8
IV_FEATURE_PROFILES
 62
7
370
25
  6
CONTINUOUS
 10
4.2999999999999954
 20
13.4835629921259823
 30
0.0
 40
0.0625
  0
LINE
  5
67
100
AcDbEntity
100
AcDbLine
  8
IV_INTERIOR_PROFILES
 62
7
370
25
  6
CONTINUOUS
 10
8.0500000000000007
 20
13.7335629921259823
 30
0.0
 11
6.5500000000000025
 21
13.7335629921259823
 31
0.0
  0
LINE
  5
68
100
AcDbEntity
100
AcDbLine
  8
IV_INTERIOR_PROFILES
 62
7
370
25
  6
CONTINUOUS
 10
6.5500000000000025
 20
13.7335629921259823
 30
0.0
 11
6.5500000000000025
 21
13.9250000000000025
 31
0.0
  0
LINE
  5
69
100
AcDbEntity
100
AcDbLine
  8
IV_INTERIOR_PROFILES
 62
7
370
25
  6
CONTINUOUS
 10
6.5500000000000025
 20
13.9250000000000025
 30
0.0
 11
8.0500000000000007
 21
13.9250000000000025
 31
0.0
  0
LINE
  5
6A
100
AcDbEntity
100
AcDbLine
  8
IV_INTERIOR_PROFILES
 62
7
370
25
  6
CONTINUOUS
 10
8.0500000000000007
 20
13.9250000000000025
 30
0.0
 11
8.0500000000000007
 21
13.7335629921259823
 31
0.0
  0
LINE
  5
6B
100
AcDbEntity
100
AcDbLine
  8
IV_INTERIOR_PROFILES
 62
7
370
25
  6
CONTINUOUS
 10
8.0499999999999989
 20
0.6750000000000017
 30
0.0
 11
6.549999999999998
 21
0.6750000000000017
 31
0.0
  0
LINE
  5
6C
100
AcDbEntity
100
AcDbLine
  8
IV_INTERIOR_PROFILES
 62
7
370
25
  6
CONTINUOUS
 10
6.549999999999998
 20
0.6750000000000017
 30
0.0
 11
6.5499999999999972
 21
0.8664370078740184
 31
0.0
  0
LINE
  5
6D
100
AcDbEntity
100
AcDbLine
  8
IV_INTERIOR_PROFILES
 62
7
370
25
  6
CONTINUOUS
 10
6.5499999999999972
 20
0.8664370078740184
 30
0.0
 11
8.0499999999999989
 21
0.8664370078740184
 31
0.0
  0
LINE
  5
6E
100
AcDbEntity
100
AcDbLine
  8
IV_INTERIOR_PROFILES
 62
7
370
25
  6
CONTINUOUS
 10
8.0499999999999989
 20
0.8664370078740184
 30
0.0
 11
8.0499999999999989
 21
0.6750000000000017
 31
0.0
  0
LINE
  5
6F
100
AcDbEntity
100
AcDbLine
  8
IV_INTERIOR_PROFILES
 62
7
370
25
  6
CONTINUOUS
 10
8.7335629921259859
 20
6.5499999999999998
 30
0.0
 11
8.5500000000000007
 21
6.5499999999999998
 31
0.0
  0
LINE
  5
70
100
AcDbEntity
100
AcDbLine
  8
IV_INTERIOR_PROFILES
 62
7
370
25
  6
CONTINUOUS
 10
8.7335629921259841
 20
8.0500000000000007
 30
0.0
 11
8.7335629921259859
 21
6.5499999999999998
 31
0.0
  0
LINE
  5
71
100
AcDbEntity
100
AcDbLine
  8
IV_INTERIOR_PROFILES
 62
7
370
25
  6
CONTINUOUS
 10
5.049999999999998
 20
0.6750000000000017
 30
0.0
 11
3.549999999999998
 21
0.6750000000000017
 31
0.0
  0
LINE
  5
72
100
AcDbEntity
100
AcDbLine
  8
IV_INTERIOR_PROFILES
 62
7
370
25
  6
CONTINUOUS
 10
3.549999999999998
 20
0.6750000000000017
 30
0.0
 11
3.5499999999999972
 21
0.8664370078740184
 31
0.0
  0
LINE
  5
73
100
AcDbEntity
100
AcDbLine
  8
IV_INTERIOR_PROFILES
 62
7
370
25
  6
CONTINUOUS
 10
3.5499999999999972
 20
0.8664370078740184
 30
0.0
 11
5.0499999999999972
 21
0.8664370078740184
 31
0.0
  0
LINE
  5
74
100
AcDbEntity
100
AcDbLine
  8
IV_INTERIOR_PROFILES
 62
7
370
25
  6
CONTINUOUS
 10
5.0499999999999972
 20
0.8664370078740184
 30
0.0
 11
5.049999999999998
 21
0.6750000000000017
 31
0.0
  0
LINE
  5
75
100
AcDbEntity
100
AcDbLine
  8
IV_INTERIOR_PROFILES
 62
7
370
25
  6
CONTINUOUS
 10
5.0500000000000025
 20
13.7335629921259841
 30
0.0
 11
3.5500000000000007
 21
13.7335629921259841
 31
0.0
  0
LINE
  5
76
100
AcDbEntity
100
AcDbLine
  8
IV_INTERIOR_PROFILES
 62
7
370
25
  6
CONTINUOUS
 10
3.5500000000000007
 20
13.7335629921259841
 30
0.0
 11
3.5500000000000016
 21
13.9250000000000043
 31
0.0
  0
LINE
  5
77
100
AcDbEntity
100
AcDbLine
  8
IV_INTERIOR_PROFILES
 62
7
370
25
  6
CONTINUOUS
 10
3.5500000000000016
 20
13.9250000000000043
 30
0.0
 11
5.0500000000000016
 21
13.9250000000000025
 31
0.0
  0
LINE
  5
78
100
AcDbEntity
100
AcDbLine
  8
IV_INTERIOR_PROFILES
 62
7
370
25
  6
CONTINUOUS
 10
5.0500000000000016
 20
13.9250000000000025
 30
0.0
 11
5.0500000000000025
 21
13.7335629921259841
 31
0.0
  0
CIRCLE
  5
79
100
AcDbEntity
100
AcDbCircle
  8
IV_INTERIOR_PROFILES
 62
7
370
25
  6
CONTINUOUS
 10
6.3015748031496042
 20
11.6883858267716558
 30
0.0
 40
0.075
  0
CIRCLE
  5
7A
100
AcDbEntity
100
AcDbCircle
  8
IV_INTERIOR_PROFILES
 62
7
370
25
  6
CONTINUOUS
 10
3.5515748031496042
 20
2.9116141732283483
 30
0.0
 40
0.075
  0
CIRCLE
  5
7B
100
AcDbEntity
100
AcDbCircle
  8
IV_INTERIOR_PROFILES
 62
7
370
25
  6
CONTINUOUS
 10
3.5515748031496068
 20
11.6883858267716558
 30
0.0
 40
0.075
  0
CIRCLE
  5
7C
100
AcDbEntity
100
AcDbCircle
  8
IV_INTERIOR_PROFILES
 62
7
370
25
  6
CONTINUOUS
 10
6.3015748031496042
 20
2.9116141732283483
 30
0.0
 40
0.075
  0
LINE
  5
7D
100
AcDbEntity
100
AcDbLine
  8
IV_OUTER_PROFILE
 62
7
370
25
  6
CONTINUOUS
 10
9.2999999999999972
 20
2.5500000000000016
 30
0.0
 11
9.2999999999999972
 21
1.5500000000000018
 31
0.0
  0
ARC
  5
7E
100
AcDbEntity
  8
IV_OUTER_PROFILE
 62
7
370
25
  6
CONTINUOUS
100
AcDbCircle
 10
10.2999999999999901
 20
8.0500000000000007
 30
0.0
 40
0.9999999999999998
100
AcDbArc
 50
180.0
 51
270.0
  0
LINE
  5
7F
100
AcDbEntity
100
AcDbLine
  8
IV_INTERIOR_PROFILES
 62
7
370
25
  6
CONTINUOUS
 10
8.5500000000000007
 20
6.5499999999999998
 30
0.0
 11
8.5499999999999989
 21
8.0500000000000007
 31
0.0
  0
LINE
  5
80
100
AcDbEntity
100
AcDbLine
  8
IV_INTERIOR_PROFILES
 62
7
370
25
  6
CONTINUOUS
 10
8.5499999999999989
 20
8.0500000000000007
 30
0.0
 11
8.7335629921259841
 21
8.0500000000000007
 31
0.0
  0
LINE
  5
81
100
AcDbEntity
100
AcDbLine
  8
IV_OUTER_PROFILE
 62
7
370
25
  6
CONTINUOUS
 10
0.4034285714286736
 20
14.1524952380952147
 30
0.0
 11
0.4034285714286753
 21
16.6524952380952165
 31
0.0
  0
LINE
  5
82
100
AcDbEntity
100
AcDbLine
  8
IV_OUTER_PROFILE
 62
7
370
25
  6
CONTINUOUS
 10
10.9034285714286749
 20
14.1524952380952129
 30
0.0
 11
0.4034285714286736
 21
14.1524952380952147
 31
0.0
  0
LINE
  5
83
100
AcDbEntity
100
AcDbLine
  8
IV_OUTER_PROFILE
 62
7
370
25
  6
CONTINUOUS
 10
10.9034285714286749
 20
16.6524952380952129
 30
0.0
 11
10.9034285714286749
 21
14.1524952380952129
 31
0.0
  0
ARC
  5
84
100
AcDbEntity
  8
IV_OUTER_PROFILE
 62
7
370
25
  6
CONTINUOUS
100
AcDbCircle
 10
5.6534285714286669
 20
-12.8845577631646222
 30
0.0
 40
30.0
100
AcDbArc
 50
79.9213418922079342
 51
100.0786581077920232
  0
CIRCLE
  5
85
100
AcDbEntity
100
AcDbCircle
  8
IV_INTERIOR_PROFILES
 62
7
370
25
  6
CONTINUOUS
 10
6.8542159730034768
 20
15.8089913010873424
 30
0.0
 40
0.05
  0
CIRCLE
  5
86
100
AcDbEntity
100
AcDbCircle
  8
IV_INTERIOR_PROFILES
 62
7
370
25
  6
CONTINUOUS
 10
6.5392553430822176
 20
14.7459991751030888
 30
0.0
 40
0.05
  0
CIRCLE
  5
87
100
AcDbEntity
100
AcDbCircle
  8
IV_INTERIOR_PROFILES
 62
7
370
25
  6
CONTINUOUS
 10
5.9093340832396981
 20
14.7459991751030906
 30
0.0
 40
0.05
  0
CIRCLE
  5
88
100
AcDbEntity
100
AcDbCircle
  8
IV_INTERIOR_PROFILES
 62
7
370
25
  6
CONTINUOUS
 10
6.2242947131609583
 20
14.745999175103087
 30
0.0
 40
0.05
  0
CIRCLE
  5
89
100
AcDbEntity
100
AcDbCircle
  8
IV_INTERIOR_PROFILES
 62
7
370
25
  6
CONTINUOUS
 10
6.8542159730034768
 20
14.7459991751030906
 30
0.0
 40
0.05
  0
CIRCLE
  5
8A
100
AcDbEntity
100
AcDbCircle
  8
IV_INTERIOR_PROFILES
 62
7
370
25
  6
CONTINUOUS
 10
6.5392553430822176
 20
15.8089913010873389
 30
0.0
 40
0.05
  0
CIRCLE
  5
8B
100
AcDbEntity
100
AcDbCircle
  8
IV_INTERIOR_PROFILES
 62
7
370
25
  6
CONTINUOUS
 10
5.909334083239699
 20
15.8089913010873424
 30
0.0
 40
0.05
  0
LINE
  5
8C
100
AcDbEntity
100
AcDbLine
  8
IV_INTERIOR_PROFILES
 62
7
370
25
  6
CONTINUOUS
 10
6.9920112485940287
 20
14.8837944506936388
 30
0.0
 11
5.8770076401688298
 21
14.8837944506936459
 31
0.0
  0
ARC
  5
8D
100
AcDbEntity
  8
IV_INTERIOR_PROFILES
 62
7
370
25
  6
CONTINUOUS
100
AcDbCircle
 10
5.6534285714286732
 20
15.2774952380952129
 30
0.0
 40
0.452755905511811
100
AcDbArc
 50
60.4081542051839264
 51
299.5918457948160381
  0
LINE
  5
8E
100
AcDbEntity
100
AcDbLine
  8
IV_INTERIOR_PROFILES
 62
7
370
25
  6
CONTINUOUS
 10
5.8770076401688298
 20
15.671196025496787
 30
0.0
 11
6.9920112485940287
 21
15.671196025496787
 31
0.0
  0
LINE
  5
8F
100
AcDbEntity
100
AcDbLine
  8
IV_INTERIOR_PROFILES
 62
7
370
25
  6
CONTINUOUS
 10
6.9920112485940287
 20
15.671196025496787
 30
0.0
 11
6.9920112485940287
 21
14.8837944506936388
 31
0.0
  0
LINE
  5
90
100
AcDbEntity
100
AcDbLine
  8
IV_INTERIOR_PROFILES
 62
7
370
25
  6
CONTINUOUS
 10
0.5284285714286736
 20
15.1524952380951987
 30
0.0
 11
0.5284285714286736
 21
16.1524952380952165
 31
0.0
  0
LINE
  5
91
100
AcDbEntity
100
AcDbLine
  8
IV_INTERIOR_PROFILES
 62
7
370
25
  6
CONTINUOUS
 10
0.5284285714286736
 20
16.1524952380952165
 30
0.0
 11
0.7198655793026902
 21
16.1524952380952165
 31
0.0
  0
LINE
  5
92
100
AcDbEntity
100
AcDbLine
  8
IV_INTERIOR_PROFILES
 62
7
370
25
  6
CONTINUOUS
 10
0.7198655793026902
 20
16.1524952380952165
 30
0.0
 11
0.7198655793026885
 21
15.1524952380952183
 31
0.0
  0
LINE
  5
93
100
AcDbEntity
100
AcDbLine
  8
IV_INTERIOR_PROFILES
 62
7
370
25
  6
CONTINUOUS
 10
0.7198655793026885
 20
15.1524952380952183
 30
0.0
 11
0.5284285714286736
 21
15.1524952380951987
 31
0.0
  0
LINE
  5
94
100
AcDbEntity
100
AcDbLine
  8
IV_INTERIOR_PROFILES
 62
7
370
25
  6
CONTINUOUS
 10
10.5869915635546583
 20
15.1524952380952129
 30
0.0
 11
10.5869915635546583
 21
16.1524952380952129
 31
0.0
  0
LINE
  5
95
100
AcDbEntity
100
AcDbLine
  8
IV_INTERIOR_PROFILES
 62
7
370
25
  6
CONTINUOUS
 10
10.5869915635546583
 20
16.1524952380952129
 30
0.0
 11
10.7784285714286749
 21
16.1524952380952129
 31
0.0
  0
LINE
  5
96
100
AcDbEntity
100
AcDbLine
  8
IV_INTERIOR_PROFILES
 62
7
370
25
  6
CONTINUOUS
 10
10.7784285714286749
 20
16.1524952380952129
 30
0.0
 11
10.7784285714286749
 21
15.1524952380952129
 31
0.0
  0
LINE
  5
97
100
AcDbEntity
100
AcDbLine
  8
IV_INTERIOR_PROFILES
 62
7
370
25
  6
CONTINUOUS
 10
10.7784285714286749
 20
15.1524952380952129
 30
0.0
 11
10.5869915635546583
 21
15.1524952380952129
 31
0.0
  0
LINE
  5
98
100
AcDbEntity
100
AcDbLine
  8
IV_INTERIOR_PROFILES
 62
7
370
25
  6
CONTINUOUS
 10
7.6534285714286723
 20
16.0274952380952165
 30
0.0
 11
7.6534285714286723
 21
16.2110582302211981
 31
0.0
  0
LINE
  5
99
100
AcDbEntity
100
AcDbLine
  8
IV_INTERIOR_PROFILES
 62
7
370
25
  6
CONTINUOUS
 10
7.6534285714286723
 20
16.2110582302211981
 30
0.0
 11
8.9034285714286749
 21
16.2110582302211981
 31
0.0
  0
LINE
  5
9A
100
AcDbEntity
100
AcDbLine
  8
IV_INTERIOR_PROFILES
 62
7
370
25
  6
CONTINUOUS
 10
8.9034285714286749
 20
16.2110582302211981
 30
0.0
 11
8.9034285714286767
 21
16.0274952380952165
 31
0.0
  0
LINE
  5
9B
100
AcDbEntity
100
AcDbLine
  8
IV_INTERIOR_PROFILES
 62
7
370
25
  6
CONTINUOUS
 10
8.9034285714286767
 20
16.0274952380952165
 30
0.0
 11
7.6534285714286723
 21
16.0274952380952165
 31
0.0
  0
CIRCLE
  5
9C
100
AcDbEntity
100
AcDbCircle
  8
IV_INTERIOR_PROFILES
 62
7
370
25
  6
CONTINUOUS
 10
3.6534285714286732
 20
15.15249523809522
 30
0.0
 40
0.5374015748031497
  0
CIRCLE
  5
9D
100
AcDbEntity
100
AcDbCircle
  8
IV_INTERIOR_PROFILES
 62
7
370
25
  6
CONTINUOUS
 10
2.1534285714286732
 20
15.1524952380952058
 30
0.0
 40
0.5374015748031497
  0
CIRCLE
  5
9E
100
AcDbEntity
100
AcDbCircle
  8
IV_INTERIOR_PROFILES
 62
7
370
25
  6
CONTINUOUS
 10
8.2784285714286767
 20
15.7774952380952165
 30
0.0
 40
0.0625
  0
CIRCLE
  5
9F
100
AcDbEntity
100
AcDbCircle
  8
IV_INTERIOR_PROFILES
 62
7
370
25
  6
CONTINUOUS
 10
10.3369915635546619
 20
15.6524952380952129
 30
0.0
 40
0.0625
  0
CIRCLE
  5
A0
100
AcDbEntity
100
AcDbCircle
  8
IV_INTERIOR_PROFILES
 62
7
370
25
  6
CONTINUOUS
 10
6.2242947131609574
 20
15.8089913010873424
 30
0.0
 40
0.05
  0
CIRCLE
  5
A1
100
AcDbEntity
100
AcDbCircle
  8
IV_INTERIOR_PROFILES
 62
7
370
25
  6
CONTINUOUS
 10
0.9698655793026885
 20
15.6524952380952094
 30
0.0
 40
0.0625
  0
LINE
  5
A2
100
AcDbEntity
100
AcDbLine
  8
IV_INTERIOR_PROFILES
 62
7
370
25
  6
CONTINUOUS
 10
2.4034285714286732
 20
16.0274952380952129
 30
0.0
 11
2.4034285714286732
 21
16.2110582302211981
 31
0.0
  0
LINE
  5
A3
100
AcDbEntity
100
AcDbLine
  8
IV_INTERIOR_PROFILES
 62
7
370
25
  6
CONTINUOUS
 10
2.4034285714286732
 20
16.2110582302211981
 30
0.0
 11
3.6534285714286732
 21
16.2110582302211945
 31
0.0
  0
LINE
  5
A4
100
AcDbEntity
100
AcDbLine
  8
IV_INTERIOR_PROFILES
 62
7
370
25
  6
CONTINUOUS
 10
3.6534285714286732
 20
16.2110582302211945
 30
0.0
 11
3.6534285714286732
 21
16.0274952380952165
 31
0.0
  0
LINE
  5
A5
100
AcDbEntity
100
AcDbLine
  8
IV_INTERIOR_PROFILES
 62
7
370
25
  6
CONTINUOUS
 10
3.6534285714286732
 20
16.0274952380952165
 30
0.0
 11
2.4034285714286732
 21
16.0274952380952129
 31
0.0
  0
CIRCLE
  5
A6
100
AcDbEntity
100
AcDbCircle
  8
IV_INTERIOR_PROFILES
 62
7
370
25
  6
CONTINUOUS
 10
3.0284285714286741
 20
15.7774952380952165
 30
0.0
 40
0.0625
  0
LINE
  5
A7
100
AcDbEntity
100
AcDbLine
  8
IV_OUTER_PROFILE
 62
7
370
25
  6
CONTINUOUS
 10
15.7743411218835199
 20
13.7321496152992388
 30
0.0
 11
15.7743411218835234
 21
13.5571496152992417
 31
0.0
  0
ARC
  5
A8
100
AcDbEntity
  8
IV_OUTER_PROFILE
 62
7
370
25
  6
CONTINUOUS
100
AcDbCircle
 10
15.2743411218835234
 20
13.7321496152992424
 30
0.0
 40
0.5
100
AcDbArc
 50
360.0
 51
90.0
  0
LINE
  5
A9
100
AcDbEntity
100
AcDbLine
  8
IV_OUTER_PROFILE
 62
7
370
25
  6
CONTINUOUS
 10
14.7743411218835412
 20
14.2321496152992424
 30
0.0
 11
15.2743411218835448
 21
14.2321496152992424
 31
0.0
  0
ARC
  5
AA
100
AcDbEntity
  8
IV_OUTER_PROFILE
 62
7
370
25
  6
CONTINUOUS
100
AcDbCircle
 10
14.7743411218835377
 20
13.7321496152992424
 30
0.0
 40
0.5
100
AcDbArc
 50
90.0
 51
180.0
  0
LINE
  5
AB
100
AcDbEntity
100
AcDbLine
  8
IV_OUTER_PROFILE
 62
7
370
25
  6
CONTINUOUS
 10
14.2743411218835234
 20
13.5571496152992417
 30
0.0
 11
14.2743411218835305
 21
13.7321496152992424
 31
0.0
  0
LINE
  5
AC
100
AcDbEntity
100
AcDbLine
  8
IV_OUTER_PROFILE
 62
7
370
25
  6
CONTINUOUS
 10
14.0243411218835305
 20
13.5571496152992417
 30
0.0
 11
14.2743411218835234
 21
13.5571496152992417
 31
0.0
  0
LINE
  5
AD
100
AcDbEntity
100
AcDbLine
  8
IV_OUTER_PROFILE
 62
7
370
25
  6
CONTINUOUS
 10
14.0243411218835234
 20
7.5571496152992408
 30
0.0
 11
14.0243411218835305
 21
13.5571496152992417
 31
0.0
  0
ARC
  5
AE
100
AcDbEntity
  8
IV_OUTER_PROFILE
 62
7
370
25
  6
CONTINUOUS
100
AcDbCircle
 10
9.024341121883527
 20
7.5571496152992479
 30
0.0
 40
4.9999999999999991
100
AcDbArc
 50
279.4838210677993402
 51
360.0
  0
LINE
  5
AF
100
AcDbEntity
100
AcDbLine
  8
IV_OUTER_PROFILE
 62
7
370
25
  6
CONTINUOUS
 10
9.8481866031827394
 20
2.6254887771102728
 30
0.0
 11
10.086841121883527
 21
0.5571496152992418
 31
0.0
  0
LINE
  5
B0
100
AcDbEntity
100
AcDbLine
  8
IV_OUTER_PROFILE
 62
7
370
25
  6
CONTINUOUS
 10
11.774341121883527
 20
0.5571496152992391
 30
0.0
 11
10.086841121883527
 21
0.5571496152992418
 31
0.0
  0
LINE
  5
B1
100
AcDbEntity
100
AcDbLine
  8
IV_OUTER_PROFILE
 62
7
370
25
  6
CONTINUOUS
 10
11.7743411218835234
 20
0.3696496152992444
 30
0.0
 11
11.774341121883527
 21
0.5571496152992391
 31
0.0
  0
LINE
  5
B2
100
AcDbEntity
100
AcDbLine
  8
IV_OUTER_PROFILE
 62
7
370
25
  6
CONTINUOUS
 10
13.0243411218835234
 20
0.3696496152992444
 30
0.0
 11
11.7743411218835234
 21
0.3696496152992444
 31
0.0
  0
LINE
  5
B3
100
AcDbEntity
100
AcDbLine
  8
IV_OUTER_PROFILE
 62
7
370
25
  6
CONTINUOUS
 10
13.0243411218835199
 20
0.5571496152992409
 30
0.0
 11
13.0243411218835234
 21
0.3696496152992444
 31
0.0
  0
LINE
  5
B4
100
AcDbEntity
100
AcDbLine
  8
IV_OUTER_PROFILE
 62
7
370
25
  6
CONTINUOUS
 10
17.024341121883527
 20
0.5571496152992436
 30
0.0
 11
13.0243411218835199
 21
0.5571496152992409
 31
0.0
  0
LINE
  5
B5
100
AcDbEntity
100
AcDbLine
  8
IV_OUTER_PROFILE
 62
7
370
25
  6
CONTINUOUS
 10
17.0243411218835163
 20
0.3696496152992427
 30
0.0
 11
17.024341121883527
 21
0.5571496152992436
 31
0.0
  0
LINE
  5
B6
100
AcDbEntity
100
AcDbLine
  8
IV_OUTER_PROFILE
 62
7
370
25
  6
CONTINUOUS
 10
18.2743411218835234
 20
0.3696496152992382
 30
0.0
 11
17.0243411218835163
 21
0.3696496152992427
 31
0.0
  0
LINE
  5
B7
100
AcDbEntity
100
AcDbLine
  8
IV_OUTER_PROFILE
 62
7
370
25
  6
CONTINUOUS
 10
18.2743411218835234
 20
0.5571496152992427
 30
0.0
 11
18.2743411218835234
 21
0.3696496152992382
 31
0.0
  0
LINE
  5
B8
100
AcDbEntity
100
AcDbLine
  8
IV_OUTER_PROFILE
 62
7
370
25
  6
CONTINUOUS
 10
19.9618411218835234
 20
0.5571496152992382
 30
0.0
 11
18.2743411218835234
 21
0.5571496152992427
 31
0.0
  0
LINE
  5
B9
100
AcDbEntity
100
AcDbLine
  8
IV_OUTER_PROFILE
 62
7
370
25
  6
CONTINUOUS
 10
19.9618411218835234
 20
0.5571496152992382
 30
0.0
 11
20.2004956405449434
 21
2.6254887771102755
 31
0.0
  0
ARC
  5
BA
100
AcDbEntity
  8
IV_OUTER_PROFILE
 62
7
370
25
  6
CONTINUOUS
100
AcDbCircle
 10
21.0243411218835234
 20
7.5571496152992372
 30
0.0
 40
4.9999999999999991
100
AcDbArc
 50
180.0
 51
260.5161789317556895
  0
LINE
  5
BB
100
AcDbEntity
100
AcDbLine
  8
IV_OUTER_PROFILE
 62
7
370
25
  6
CONTINUOUS
 10
16.0243411218835341
 20
13.5571496152992417
 30
0.0
 11
16.0243411218835234
 21
7.5571496152992408
 31
0.0
  0
LINE
  5
BC
100
AcDbEntity
100
AcDbLine
  8
IV_OUTER_PROFILE
 62
7
370
25
  6
CONTINUOUS
 10
15.7743411218835234
 20
13.5571496152992417
 30
0.0
 11
16.0243411218835341
 21
13.5571496152992417
 31
0.0
  0
CIRCLE
  5
BD
100
AcDbEntity
100
AcDbCircle
  8
IV_FEATURE_PROFILES
 62
7
370
25
  6
CONTINUOUS
 10
12.3993411218835305
 20
0.7601496152992421
 30
0.0
 40
0.0625
  0
CIRCLE
  5
BE
100
AcDbEntity
100
AcDbCircle
  8
IV_FEATURE_PROFILES
 62
7
370
25
  6
CONTINUOUS
 10
15.0243411218835234
 20
13.3541496152992423
 30
0.0
 40
0.0625
  0
CIRCLE
  5
BF
100
AcDbEntity
100
AcDbCircle
  8
IV_FEATURE_PROFILES
 62
7
370
25
  6
CONTINUOUS
 10
17.649341121883527
 20
0.760149615299243
 30
0.0
 40
0.0625
  0
LINE
  5
C0
100
AcDbEntity
100
AcDbLine
  8
IV_OUTER_PROFILE
 62
7
370
25
  6
CONTINUOUS
 10
22.3284246820974239
 20
3.1673947875045272
 30
0.0
 11
21.8284246820974381
 21
3.1673947875045272
 31
0.0
  0
ARC
  5
C1
100
AcDbEntity
  8
IV_OUTER_PROFILE
 62
7
370
25
  6
CONTINUOUS
100
AcDbCircle
 10
72.7682748700501776
 20
13.1123267311658687
 30
0.0
 40
51.4108953272047202
100
AcDbArc
 50
176.4971997096657788
 51
191.1536166124970748
  0
LINE
  5
C2
100
AcDbEntity
100
AcDbLine
  8
IV_OUTER_PROFILE
 62
7
370
25
  6
CONTINUOUS
 10
21.2034246820974346
 20
16.2533947875045151
 30
0.0
 11
21.4534246820974381
 21
16.2533947875045151
 31
0.0
  0
LINE
  5
C3
100
AcDbEntity
100
AcDbLine
  8
IV_OUTER_PROFILE
 62
7
370
25
  6
CONTINUOUS
 10
21.2034246820974346
 20
16.4283947875045193
 30
0.0
 11
21.2034246820974346
 21
16.2533947875045151
 31
0.0
  0
ARC
  5
C4
100
AcDbEntity
  8
IV_OUTER_PROFILE
 62
7
370
25
  6
CONTINUOUS
100
AcDbCircle
 10
20.7034246820974381
 20
16.4283947875045264
 30
0.0
 40
0.5
100
AcDbArc
 50
360.0
 51
90.0
  0
LINE
  5
C5
100
AcDbEntity
100
AcDbLine
  8
IV_OUTER_PROFILE
 62
7
370
25
  6
CONTINUOUS
 10
20.2034246820974346
 20
16.9283947875045264
 30
0.0
 11
20.7034246820974381
 21
16.9283947875045264
 31
0.0
  0
ARC
  5
C6
100
AcDbEntity
  8
IV_OUTER_PROFILE
 62
7
370
25
  6
CONTINUOUS
100
AcDbCircle
 10
20.2034246820974346
 20
16.4283947875045264
 30
0.0
 40
0.5
100
AcDbArc
 50
90.0
 51
180.0
  0
LINE
  5
C7
100
AcDbEntity
100
AcDbLine
  8
IV_OUTER_PROFILE
 62
7
370
25
  6
CONTINUOUS
 10
19.7034246820974381
 20
16.2533947875045222
 30
0.0
 11
19.7034246820974346
 21
16.4283947875045264
 31
0.0
  0
LINE
  5
C8
100
AcDbEntity
100
AcDbLine
  8
IV_OUTER_PROFILE
 62
7
370
25
  6
CONTINUOUS
 10
18.2034246820974417
 20
16.2533947875045222
 30
0.0
 11
19.7034246820974381
 21
16.2533947875045222
 31
0.0
  0
LINE
  5
C9
100
AcDbEntity
100
AcDbLine
  8
IV_OUTER_PROFILE
 62
7
370
25
  6
CONTINUOUS
 10
18.2034246820974346
 20
16.4283947875045264
 30
0.0
 11
18.2034246820974417
 21
16.2533947875045222
 31
0.0
  0
ARC
  5
CA
100
AcDbEntity
  8
IV_OUTER_PROFILE
 62
7
370
25
  6
CONTINUOUS
100
AcDbCircle
 10
17.7034246820974346
 20
16.4283947875045264
 30
0.0
 40
0.5
100
AcDbArc
 50
360.0
 51
90.0
  0
LINE
  5
CB
100
AcDbEntity
100
AcDbLine
  8
IV_OUTER_PROFILE
 62
7
370
25
  6
CONTINUOUS
 10
17.2034246820974381
 20
16.9283947875045264
 30
0.0
 11
17.7034246820974346
 21
16.9283947875045264
 31
0.0
  0
ARC
  5
CC
100
AcDbEntity
  8
IV_OUTER_PROFILE
 62
7
370
25
  6
CONTINUOUS
100
AcDbCircle
 10
17.2034246820974381
 20
16.4283947875045264
 30
0.0
 40
0.5
100
AcDbArc
 50
90.0
 51
180.0
  0
LINE
  5
CD
100
AcDbEntity
100
AcDbLine
  8
IV_OUTER_PROFILE
 62
7
370
25
  6
CONTINUOUS
 10
16.7034246820974417
 20
16.2533947875045222
 30
0.0
 11
16.7034246820974452
 21
16.4283947875045264
 31
0.0
  0
LINE
  5
CE
100
AcDbEntity
100
AcDbLine
  8
IV_OUTER_PROFILE
 62
7
370
25
  6
CONTINUOUS
 10
15.7034246820974381
 20
16.2533947875045222
 30
0.0
 11
16.7034246820974417
 21
16.2533947875045222
 31
0.0
  0
ARC
  5
CF
100
AcDbEntity
  8
IV_OUTER_PROFILE
 62
7
370
25
  6
CONTINUOUS
100
AcDbCircle
 10
63.9700666924911303
 20
24.2749741695123582
 30
0.0
 40
48.9286671261417325
100
AcDbArc
 50
189.4359161251015564
 51
205.5561191080409174
  0
LINE
  5
D0
100
AcDbEntity
100
AcDbLine
  8
IV_OUTER_PROFILE
 62
7
370
25
  6
CONTINUOUS
 10
20.8284246820974346
 20
3.167394787504529
 30
0.0
 11
19.8284246820974275
 21
3.167394787504529
 31
0.0
  0
LINE
  5
D1
100
AcDbEntity
100
AcDbLine
  8
IV_OUTER_PROFILE
 62
7
370
25
  6
CONTINUOUS
 10
20.8284246820974346
 20
2.9798947875045183
 30
0.0
 11
20.8284246820974346
 21
3.167394787504529
 31
0.0
  0
LINE
  5
D2
100
AcDbEntity
100
AcDbLine
  8
IV_OUTER_PROFILE
 62
7
370
25
  6
CONTINUOUS
 10
21.8284246820974239
 20
2.9798947875045121
 30
0.0
 11
20.8284246820974346
 21
2.9798947875045183
 31
0.0
  0
LINE
  5
D3
100
AcDbEntity
100
AcDbLine
  8
IV_OUTER_PROFILE
 62
7
370
25
  6
CONTINUOUS
 10
21.8284246820974381
 20
3.1673947875045272
 30
0.0
 11
21.8284246820974239
 21
2.9798947875045121
 31
0.0
  0
CIRCLE
  5
D4
100
AcDbEntity
100
AcDbCircle
  8
IV_FEATURE_PROFILES
 62
7
370
25
  6
CONTINUOUS
 10
17.4151420014675153
 20
16.643894787504518
 30
0.0
 40
0.0625
  0
CIRCLE
  5
D5
100
AcDbEntity
100
AcDbCircle
  8
IV_FEATURE_PROFILES
 62
7
370
25
  6
CONTINUOUS
 10
20.4945909089478349
 20
16.6438947875045145
 30
0.0
 40
0.0625
  0
CIRCLE
  5
D6
100
AcDbEntity
100
AcDbCircle
  8
IV_FEATURE_PROFILES
 62
7
370
25
  6
CONTINUOUS
 10
21.3284246820974239
 20
3.3703947875045293
 30
0.0
 40
0.0625
  0
LINE
  5
D7
100
AcDbEntity
100
AcDbLine
  8
IV_OUTER_PROFILE
 62
7
370
25
  6
CONTINUOUS
 10
14.4832536600999227
 20
16.6546587737765108
 30
0.0
 11
14.4832536600999138
 21
17.1546587737765002
 31
0.0
  0
ARC
  5
D8
100
AcDbEntity
  8
IV_OUTER_PROFILE
 62
7
370
25
  6
CONTINUOUS
100
AcDbCircle
 10
4.5383217164383955
 20
-33.7851914141762606
 30
0.0
 40
51.4108953272047202
100
AcDbArc
 50
78.8463833875030105
 51
93.5028002903342212
  0
LINE
  5
D9
100
AcDbEntity
100
AcDbLine
  8
IV_OUTER_PROFILE
 62
7
370
25
  6
CONTINUOUS
 10
1.3972536600999022
 20
17.7796587737765286
 30
0.0
 11
1.3972536600999235
 21
17.5296587737765037
 31
0.0
  0
LINE
  5
DA
100
AcDbEntity
100
AcDbLine
  8
IV_OUTER_PROFILE
 62
7
370
25
  6
CONTINUOUS
 10
1.2222536600999121
 20
17.7796587737765144
 30
0.0
 11
1.3972536600999022
 21
17.7796587737765286
 31
0.0
  0
ARC
  5
DB
100
AcDbEntity
  8
IV_OUTER_PROFILE
 62
7
370
25
  6
CONTINUOUS
100
AcDbCircle
 10
1.2222536600999263
 20
18.2796587737765002
 30
0.0
 40
0.5
100
AcDbArc
 50
180.0
 51
270.0
  0
LINE
  5
DC
100
AcDbEntity
100
AcDbLine
  8
IV_OUTER_PROFILE
 62
7
370
25
  6
CONTINUOUS
 10
0.7222536600999192
 20
18.7796587737765179
 30
0.0
 11
0.7222536600999192
 21
18.2796587737765002
 31
0.0
  0
ARC
  5
DD
100
AcDbEntity
  8
IV_OUTER_PROFILE
 62
7
370
25
  6
CONTINUOUS
100
AcDbCircle
 10
1.2222536600999121
 20
18.7796587737765108
 30
0.0
 40
0.5
100
AcDbArc
 50
90.0
 51
180.0
  0
LINE
  5
DE
100
AcDbEntity
100
AcDbLine
  8
IV_OUTER_PROFILE
 62
7
370
25
  6
CONTINUOUS
 10
1.3972536600999164
 20
19.2796587737765144
 30
0.0
 11
1.2222536600999121
 21
19.2796587737765144
 31
0.0
  0
LINE
  5
DF
100
AcDbEntity
100
AcDbLine
  8
IV_OUTER_PROFILE
 62
7
370
25
  6
CONTINUOUS
 10
1.3972536600999235
 20
20.7796587737765002
 30
0.0
 11
1.3972536600999164
 21
19.2796587737765144
 31
0.0
  0
LINE
  5
E0
100
AcDbEntity
100
AcDbLine
  8
IV_OUTER_PROFILE
 62
7
370
25
  6
CONTINUOUS
 10
1.2222536600999121
 20
20.7796587737765144
 30
0.0
 11
1.3972536600999235
 21
20.7796587737765002
 31
0.0
  0
ARC
  5
E1
100
AcDbEntity
  8
IV_OUTER_PROFILE
 62
7
370
25
  6
CONTINUOUS
100
AcDbCircle
 10
1.2222536600999192
 20
21.2796587737765144
 30
0.0
 40
0.5
100
AcDbArc
 50
180.0
 51
270.0
  0
LINE
  5
E2
100
AcDbEntity
100
AcDbLine
  8
IV_OUTER_PROFILE
 62
7
370
25
  6
CONTINUOUS
 10
0.7222536600999192
 20
21.7796587737765144
 30
0.0
 11
0.7222536600999121
 21
21.2796587737765108
 31
0.0
  0
ARC
  5
E3
100
AcDbEntity
  8
IV_OUTER_PROFILE
 62
7
370
25
  6
CONTINUOUS
100
AcDbCircle
 10
1.2222536600999263
 20
21.7796587737765073
 30
0.0
 40
0.5
100
AcDbArc
 50
90.0
 51
180.0
  0
LINE
  5
E4
100
AcDbEntity
100
AcDbLine
  8
IV_OUTER_PROFILE
 62
7
370
25
  6
CONTINUOUS
 10
1.3972536600999164
 20
22.2796587737765073
 30
0.0
 11
1.2222536600999121
 21
22.2796587737765144
 31
0.0
  0
LINE
  5
E5
100
AcDbEntity
100
AcDbLine
  8
IV_OUTER_PROFILE
 62
7
370
25
  6
CONTINUOUS
 10
1.3972536600999093
 20
23.2796587737765037
 30
0.0
 11
1.3972536600999164
 21
22.2796587737765073
 31
0.0
  0
ARC
  5
E6
100
AcDbEntity
  8
IV_OUTER_PROFILE
 62
7
370
25
  6
CONTINUOUS
100
AcDbCircle
 10
-6.6243257219080052
 20
-24.98698323661716
 30
0.0
 40
48.9286671261417325
100
AcDbArc
 50
64.4438808919590684
 51
80.5640838748984009
  0
LINE
  5
E7
100
AcDbEntity
100
AcDbLine
  8
IV_OUTER_PROFILE
 62
7
370
25
  6
CONTINUOUS
 10
14.4832536600999013
 20
18.1546587737765073
 30
0.0
 11
14.4832536600999084
 21
19.1546587737765002
 31
0.0
  0
LINE
  5
E8
100
AcDbEntity
100
AcDbLine
  8
IV_OUTER_PROFILE
 62
7
370
25
  6
CONTINUOUS
 10
14.6707536600999084
 20
18.1546587737765073
 30
0.0
 11
14.4832536600999013
 21
18.1546587737765073
 31
0.0
  0
LINE
  5
E9
100
AcDbEntity
100
AcDbLine
  8
IV_OUTER_PROFILE
 62
7
370
25
  6
CONTINUOUS
 10
14.6707536600999369
 20
17.1546587737765037
 30
0.0
 11
14.6707536600999084
 21
18.1546587737765073
 31
0.0
  0
LINE
  5
EA
100
AcDbEntity
100
AcDbLine
  8
IV_OUTER_PROFILE
 62
7
370
25
  6
CONTINUOUS
 10
14.4832536600999138
 20
17.1546587737765002
 30
0.0
 11
14.6707536600999369
 21
17.1546587737765037
 31
0.0
  0
CIRCLE
  5
EB
100
AcDbEntity
100
AcDbCircle
  8
IV_FEATURE_PROFILES
 62
7
370
25
  6
CONTINUOUS
 10
1.0067536600999276
 20
21.5679414544064336
 30
0.0
 40
0.0625
  0
CIRCLE
  5
EC
100
AcDbEntity
100
AcDbCircle
  8
IV_FEATURE_PROFILES
 62
7
370
25
  6
CONTINUOUS
 10
1.0067536600999063
 20
18.4884925469261212
 30
0.0
 40
0.0625
  0
CIRCLE
  5
ED
100
AcDbEntity
100
AcDbCircle
  8
IV_FEATURE_PROFILES
 62
7
370
25
  6
CONTINUOUS
 10
14.2802536600999019
 20
17.6546587737765073
 30
0.0
 40
0.0625
  0
LINE
  5
EE
100
AcDbEntity
100
AcDbLine
  8
IV_INTERIOR_PROFILES
 62
256
370
-1
  6
ByLayer
 10
0.0
 20
23.5
 30
0.0
 11
0.0
 21
0.0
 31
0.0
  0
LINE
  5
EF
100
AcDbEntity
100
AcDbLine
  8
IV_INTERIOR_PROFILES
 62
256
370
-1
  6
ByLayer
 10
23.5
 20
0.0
 30
0.0
 11
23.5
 21
23.5
 31
0.0
  0
LINE
  5
F0
100
AcDbEntity
100
AcDbLine
  8
IV_INTERIOR_PROFILES
 62
256
370
-1
  6
ByLayer
 10
23.5
 20
23.5
 30
0.0
 11
0.0
 21
23.5
 31
0.0
  0
LINE
  5
F1
100
AcDbEntity
100
AcDbLine
  8
IV_INTERIOR_PROFILES
 62
256
370
-1
  6
ByLayer
 10
0.0
 20
0.0
 30
0.0
 11
23.5
 21
0.0
 31
0.0
  0
ENDSEC
  0
SECTION
  2
OBJECTS
  0
DICTIONARY
  5
C
100
AcDbDictionary
280
0
281
1
  3
ACAD_GROUP
350
D
  3
ACAD_LAYOUT
350
1A
  3
ACAD_MLINESTYLE
350
17
  3
ACAD_PLOTSETTINGS
350
19
  3
ACAD_PLOTSTYLENAME
350
E
  3
AcDbVariableDictionary
350
F2
  0
DICTIONARY
  5
D
100
AcDbDictionary
280
0
281
1
  0
ACDBDICTIONARYWDFLT
  5
E
100
AcDbDictionary
281
1
  3
Normal
350
F
100
AcDbDictionaryWithDefault
340
F
  0
ACDBPLACEHOLDER
  5
F
  0
DICTIONARY
  5
17
100
AcDbDictionary
280
0
281
1
  3
Standard
350
18
  0
MLINESTYLE
  5
18
100
AcDbMlineStyle
  2
STANDARD
 70
0
  3

 62
256
 51
90.0
 52
90.0
 71
2
 49
0.5
 62
256
  6
BYLAYER
 49
-0.5
 62
256
  6
BYLAYER
  0
DICTIONARY
  5
19
100
AcDbDictionary
280
0
281
1
  0
DICTIONARY
  5
1A
100
AcDbDictionary
281
1
  3
Layout1
350
1E
  3
Layout2
350
26
  3
Model
350
22
  0
LAYOUT
  5
1E
100
AcDbPlotSettings
  1

  2
C:\Program Files\AutoCAD 2002\plotters\DWF ePlot (optimized for plotting).pc3
  4

  6

 40
0.0
 41
0.0
 42
0.0
 43
0.0
 44
0.0
 45
0.0
 46
0.0
 47
0.0
 48
0.0
 49
0.0
140
0.0
141
0.0
142
1.0
143
1.0
 70
688
 72
0
 73
0
 74
5
  7

 75
16
147
1.0
148
0.0
149
0.0
100
AcDbLayout
  1
Layout1
 70
1
 71
1
 10
0.0
 20
0.0
 11
420.0
 21
297.0
 12
0.0
 22
0.0
 32
0.0
 14
100000000000000000000.0
 24
100000000000000000000.0
 34
100000000000000000000.0
 15
-100000000000000000000.0
 25
-100000000000000000000.0
 35
-100000000000000000000.0
146
0.0
 13
0.0
 23
0.0
 33
0.0
 16
1.0
 26
0.0
 36
0.0
 17
0.0
 27
1.0
 37
0.0
 76
0
330
1B
  0
LAYOUT
  5
22
100
AcDbPlotSettings
  1

  2
C:\Program Files\AutoCAD 2002\plotters\DWF ePlot (optimized for plotting).pc3
  4

  6

 40
0.0
 41
0.0
 42
0.0
 43
0.0
 44
0.0
 45
0.0
 46
0.0
 47
0.0
 48
0.0
 49
0.0
140
0.0
141
0.0
142
1.0
143
1.0
 70
1712
 72
0
 73
0
 74
0
  7

 75
0
147
1.0
148
0.0
149
0.0
100
AcDbLayout
  1
Model
 70
1
 71
0
 10
0.0
 20
0.0
 11
12.0
 21
9.0
 12
0.0
 22
0.0
 32
0.0
 14
0.0
 24
0.0
 34
0.0
 15
0.0
 25
0.0
 35
0.0
146
0.0
 13
0.0
 23
0.0
 33
0.0
 16
1.0
 26
0.0
 36
0.0
 17
0.0
 27
1.0
 37
0.0
 76
0
330
1F
  0
LAYOUT
  5
26
100
AcDbPlotSettings
  1

  2
C:\Program Files\AutoCAD 2002\plotters\DWF ePlot (optimized for plotting).pc3
  4

  6

 40
0.0
 41
0.0
 42
0.0
 43
0.0
 44
0.0
 45
0.0
 46
0.0
 47
0.0
 48
0.0
 49
0.0
140
0.0
141
0.0
142
1.0
143
1.0
 70
688
 72
0
 73
0
 74
5
  7

 75
16
147
1.0
148
0.0
149
0.0
100
AcDbLayout
  1
Layout2
 70
1
 71
2
 10
0.0
 20
0.0
 11
12.0
 21
9.0
 12
0.0
 22
0.0
 32
0.0
 14
0.0
 24
0.0
 34
0.0
 15
0.0
 25
0.0
 35
0.0
146
0.0
 13
0.0
 23
0.0
 33
0.0
 16
1.0
 26
0.0
 36
0.0
 17
0.0
 27
1.0
 37
0.0
 76
0
330
23
  0
DICTIONARY
  5
F2
100
AcDbDictionary
281
1
  3
DIMASSOC
350
F4
  3
HIDETEXT
350
F3
  0
DICTIONARYVAR
  5
F3
100
DictionaryVariables
280
0
  1
2
  0
DICTIONARYVAR
  5
F4
100
DictionaryVariables
280
0
  1
1
  0
ENDSEC
  0
EOF
